<svg xmlns="http://www.w3.org/2000/svg" width="512" height="512" viewBox="0 0 512 512" fill="none">
  <rect width="512" height="512" rx="64" fill="#FFF0C2" />
  <path d="M128 184C128 153.49 152.49 129 183 129H341C371.51 129 396 153.49 396 184V328C396 358.51 371.51 383 341 383H183C152.49 383 128 358.51 128 328V184Z" fill="#FFD65B"/>
  <path d="M196 210C196 197.297 206.297 187 219 187H305C317.703 187 328 197.297 328 210V302C328 314.703 317.703 325 305 325H219C206.297 325 196 314.703 196 302V210Z" fill="#FFF8E7"/>
  <circle cx="220" cy="228" r="20" fill="#E69C00"/>
  <path d="M253 285C253 268.431 266.431 255 283 255C299.569 255 313 268.431 313 285V326H253V285Z" fill="#E69C00"/>
  <path d="M196 292C196 269.909 213.909 252 236 252C258.091 252 276 269.909 276 292V326H196V292Z" fill="#9B1756" opacity="0.8"/>
  <rect x="156" y="340" width="200" height="16" rx="8" fill="#E69C00" opacity="0.4"/>
</svg>
